<svg xmlns="http://www.w3.org/2000/svg" viewBox="0 0 64 64">
  <rect x="1" y="1" width="62" height="62" rx="14" fill="#17184F"/>
  <path d="M18 23h28a4 4 0 0 1 4 4v23a4 4 0 0 1-4 4H18a4 4 0 0 1-4-4V27a4 4 0 0 1 4-4z"
        fill="none" stroke="#FFFFFF" stroke-width="4.5" stroke-linejoin="round"/>
  <path d="M24 23v-4a4 4 0 0 1 4-4h8a4 4 0 0 1 4 4v4"
        fill="none" stroke="#FFFFFF" stroke-width="4.5" stroke-linecap="round"/>
  <path d="M14 34h36" stroke="#FFFFFF" stroke-width="4.5" stroke-linecap="round"/>
  <circle cx="32" cy="43" r="7.2" fill="none" stroke="#18D6D2" stroke-width="4"/>
  <path d="M32 35.8v14.4M24.8 43h14.4" stroke="#18D6D2" stroke-width="3.4" stroke-linecap="round"/>
</svg>