<svg xmlns="http://www.w3.org/2000/svg" viewBox="0 0 1024 1024">
  <defs>
    <linearGradient id="bg" x1="0" y1="0" x2="1" y2="1">
      <stop offset="0" stop-color="#2D2A7A"/>
      <stop offset="1" stop-color="#17184F"/>
    </linearGradient>
    <linearGradient id="teal" x1="0" y1="0" x2="1" y2="1">
      <stop offset="0" stop-color="#21E2DE"/>
      <stop offset="1" stop-color="#00BFC4"/>
    </linearGradient>
  </defs>
  <rect x="24" y="24" width="976" height="976" rx="220" fill="url(#bg)"/>
  <!-- Toolbox -->
  <path d="M292 330 H732 Q800 330 800 398 V754 Q800 822 732 822 H292 Q224 822 224 754 V398 Q224 330 292 330 Z"
        fill="none" stroke="#FFFFFF" stroke-width="62" stroke-linejoin="round"/>
  <path d="M382 330 V268 Q382 210 440 210 H584 Q642 210 642 268 V330"
        fill="none" stroke="#FFFFFF" stroke-width="62" stroke-linecap="round" stroke-linejoin="round"/>
  <path d="M224 500 H800" stroke="#FFFFFF" stroke-width="62" stroke-linecap="round"/>
  <rect x="328" y="454" width="76" height="100" rx="24" fill="#FFFFFF"/>
  <rect x="620" y="454" width="76" height="100" rx="24" fill="#FFFFFF"/>

  <!-- Spark knot / connected intelligence -->
  <g transform="translate(512 650)" fill="none" stroke="url(#teal)" stroke-width="44" stroke-linecap="round" stroke-linejoin="round">
    <path d="M0 -122 C54 -176 126 -118 92 -64 L34 -6"/>
    <path d="M122 0 C176 54 118 126 64 92 L6 34"/>
    <path d="M0 122 C-54 176 -126 118 -92 64 L-34 6"/>
    <path d="M-122 0 C-176 -54 -118 -126 -64 -92 L-6 -34"/>
    <path d="M0 -48 L48 0 L0 48 L-48 0 Z"/>
  </g>
</svg>